<svg xmlns="http://www.w3.org/2000/svg" xmlns:xlink="http://www.w3.org/1999/xlink" width="193.998" height="129.854" viewBox="0 0 193.998 129.854">
  <defs>
    <clipPath id="clip-path">
      <path id="Path_1165" data-name="Path 1165" d="M1533.567,1253.84l6.187,2.6,3.467,30.077H1515.71l8.4-31.546Z" transform="translate(-1515.71 -1253.84)" fill="#d9af00"/>
    </clipPath>
  </defs>
  <g id="Group_44" data-name="Group 44" opacity="0.96">
    <g id="INTERIOR" transform="translate(85.462 115.811)">
      <path id="Path_1122" data-name="Path 1122" d="M1370.156,1512.74H1261.62v6.942a7.1,7.1,0,0,0,7.1,7.1h94.339a7.1,7.1,0,0,0,7.1-7.1Z" transform="translate(-1261.62 -1512.74)" fill="#e8e8e8"/>
    </g>
    <g id="WOMAN" transform="translate(124.207 0)">
      <g id="BLOUSE" transform="translate(14.681 31.88)">
        <path id="Path_1139" data-name="Path 1139" d="M1711.737,847.784l-12.426,1.753.193,1.756a1.127,1.127,0,0,1-.716,1.164l-9.07,3.49a7.5,7.5,0,0,0-4.808,7v7.826h6.135l-2.272,7.718,4.592,4.175,1.029,12.622,22.607-.076.331-22.265h10.883v-3.173l1.536-3.325a8.82,8.82,0,0,0-5.427-12.138l-10.068-3.077-.992-2.55A1.424,1.424,0,0,0,1711.737,847.784Z" transform="translate(-1684.91 -847.771)" fill="#036"/>
        <path id="Path_1140" data-name="Path 1140" d="M1945.36,994.54H1934.2l-1-3.99" transform="translate(-1901.861 -972.529)" fill="none" stroke="#fff" stroke-linecap="round" stroke-miterlimit="10" stroke-width="1"/>
        <path id="Path_1141" data-name="Path 1141" d="M2004.76,970.41c0,.271-.841,4.261-.841,4.261" transform="translate(-1963.655 -954.931)" fill="none" stroke="#fff" stroke-linecap="round" stroke-miterlimit="10" stroke-width="1"/>
        <line id="Line_540" data-name="Line 540" x1="1.178" y1="4.261" transform="translate(36.016 15.479)" fill="none" stroke="#fff" stroke-linecap="round" stroke-miterlimit="10" stroke-width="1"/>
        <line id="Line_541" data-name="Line 541" y2="2.979" transform="translate(32.336 22.011)" fill="none" stroke="#fff" stroke-linecap="round" stroke-miterlimit="10" stroke-width="1"/>
        <path id="Path_1142" data-name="Path 1142" d="M1844.439,874.72c0,2.47-2.576,4.472-5.517,4.472s-5.323-1.614-5.323-4.084" transform="translate(-1814.833 -871.319)" fill="none" stroke="#fff" stroke-linecap="round" stroke-miterlimit="10" stroke-width="1"/>
        <path id="Path_1143" data-name="Path 1143" d="M1789.666,877.79a3.634,3.634,0,0,1-3.51,3.746A3.442,3.442,0,0,1,1783.32,880" transform="translate(-1770.899 -874.001)" fill="none" stroke="#fff" stroke-linecap="round" stroke-miterlimit="10" stroke-width="1"/>
        <path id="Path_1144" data-name="Path 1144" d="M1801.7,1085.94a8.583,8.583,0,0,0,6.6,3.1" transform="translate(-1786.959 -1055.879)" fill="none" stroke="#fff" stroke-linecap="round" stroke-miterlimit="10" stroke-width="1"/>
      </g>
      <g id="HEAD" transform="translate(23.146)">
        <path id="Path_1145" data-name="Path 1145" d="M1770.269,721.555l-12.358,1.738-.515-4.144h-1.883a3.545,3.545,0,0,1-3.534-3.692l.379-9.37a6.136,6.136,0,0,0,1.247-2.8c1.172,3.017,4.473,5.365,8.621,6.1a2.754,2.754,0,0,1,2.213,2.146l.2.932.033-.438a2.383,2.383,0,0,1,4.76.174v.252a2.383,2.383,0,0,1-2.383,2.383.26.26,0,0,0-.264.268.253.253,0,0,0,.167.241l1.954.775Z" transform="translate(-1751.976 -689.646)" fill="#fdd5d6"/>
        <path id="Path_1146" data-name="Path 1146" d="M1774.291,608.267a8.15,8.15,0,0,1-2.388,13.253l-.351.156-1.954-.775a.264.264,0,0,1,.1-.5,2.383,2.383,0,0,0,2.383-2.381v-.252a2.383,2.383,0,0,0-4.76-.174l-.033.438-.2-.931a2.754,2.754,0,0,0-2.213-2.146c-4.148-.735-7.447-3.084-8.621-6.1a6.139,6.139,0,0,1-1.247,2.8l.026-.649a5.3,5.3,0,0,1,.983-2.873,5.391,5.391,0,0,1,.343-.433,5.323,5.323,0,0,1,4-1.807h5.554a6.83,6.83,0,1,1,8.37,2.4Z" transform="translate(-1754.627 -595.195)" fill="#171717"/>
        <path id="Path_1147" data-name="Path 1147" d="M1801.206,811.623l-5.059,6.012-.712.1-.515-4.144h.062a9.651,9.651,0,0,0,6.005-2.182.159.159,0,0,1,.1-.039.157.157,0,0,1,.119.252Z" transform="translate(-1789.5 -784.085)" fill="#680004"/>
        <path id="Path_1148" data-name="Path 1148" d="M1764.394,773.872a.24.24,0,1,1,0,.478h-2.511v4.8l2.716-1.38a.239.239,0,1,1,.217.425l-2.929,1.515a10.4,10.4,0,0,1-4.427,1.118h-1.949a3.545,3.545,0,0,1-3.534-3.7l.134-3.259Z" transform="translate(-1751.974 -751.318)" fill="#a0d6ff"/>
        <path id="Path_1149" data-name="Path 1149" d="M1753.48,747.541l.649-.112a2.2,2.2,0,0,1,2.572,2.166v2.981" transform="translate(-1753.29 -728.186)" fill="none" stroke="#171717" stroke-linecap="round" stroke-miterlimit="10" stroke-width="1"/>
        <ellipse id="Ellipse_323" data-name="Ellipse 323" cx="0.452" cy="0.649" rx="0.452" ry="0.649" transform="translate(0.973 20.438)" fill="#171717"/>
        <ellipse id="Ellipse_324" data-name="Ellipse 324" cx="0.547" cy="0.717" rx="0.547" ry="0.717" transform="translate(5.525 20.37)" fill="#171717"/>
        <path id="Path_1150" data-name="Path 1150" d="M1862.786,767.1s-1.469-.307-1.875,1.682" transform="translate(-1847.161 -745.389)" fill="none" stroke="#101010" stroke-linecap="round" stroke-miterlimit="10" stroke-width="0.5"/>
        <line id="Line_542" data-name="Line 542" x1="0.852" y1="0.868" transform="translate(14.487 22.163)" fill="none" stroke="#101010" stroke-linecap="round" stroke-miterlimit="10" stroke-width="1"/>
        <circle id="Ellipse_325" data-name="Ellipse 325" cx="1.122" cy="1.122" r="1.122" transform="translate(13.362 24.628)" fill="#ec1c24"/>
      </g>
      <g id="SKIRT" transform="translate(15.467 79.329)">
        <path id="Path_1151" data-name="Path 1151" d="M1722.45,1223.7l5.3,6.666a30.091,30.091,0,0,1,6.508,17.732l.4,12.09H1691.14l8.7-36.406Z" transform="translate(-1691.14 -1223.7)" fill="#a0d6ff"/>
        <path id="Path_1152" data-name="Path 1152" d="M1835.24,1256.152l15.071-13.022,1.966,2.476Z" transform="translate(-1817.052 -1240.677)" fill="#a0d6ff"/>
      </g>
      <g id="HAND" transform="translate(0 48.366)">
        <path id="Path_1153" data-name="Path 1153" d="M1579.635,1007.994l12.1-11.189-4.023-3.683a1.658,1.658,0,0,1-.312-1.54l2.01-6.671,4.751-.3a4.065,4.065,0,0,0,3.5-2.5l1.248-2.572a.8.8,0,0,0-.727-1.154l-10.838.048A8.041,8.041,0,0,0,1580.7,982c-2.945,4.4-7.419,12.015-11.116,17.923a6.488,6.488,0,0,0-.147,6.638h0a6.49,6.49,0,0,0,10.2,1.433Z" transform="translate(-1568.595 -978.39)" fill="#fdd5d6"/>
        <path id="Path_1154" data-name="Path 1154" d="M1696.134,1031.49h-2.979l-2.006,4.382" transform="translate(-1675.681 -1024.788)" fill="none" stroke="#56303c" stroke-linecap="round" stroke-miterlimit="10" stroke-width="0.5"/>
        <line id="Line_543" data-name="Line 543" x2="5.772" transform="translate(24.079 1.316)" fill="none" stroke="#56303c" stroke-linecap="round" stroke-miterlimit="10" stroke-width="0.5"/>
        <line id="Line_544" data-name="Line 544" x2="5.386" transform="translate(23.668 2.894)" fill="none" stroke="#56303c" stroke-linecap="round" stroke-miterlimit="10" stroke-width="0.5"/>
        <line id="Line_545" data-name="Line 545" y1="0.165" x2="5.212" transform="translate(22.918 4.443)" fill="none" stroke="#56303c" stroke-linecap="round" stroke-miterlimit="10" stroke-width="0.5"/>
        <line id="Line_546" data-name="Line 546" x2="1.101" transform="translate(16.374 6.703)" fill="none" stroke="#56303c" stroke-linecap="round" stroke-miterlimit="10" stroke-width="4.33" opacity="0.1"/>
      </g>
    </g>
    <g id="CAT" transform="translate(161.161 108.267)">
      <path id="Path_1155" data-name="Path 1155" d="M1894.8,1457.829a6.919,6.919,0,0,1,.524,2.672h-6.976l-7.239.008a7.036,7.036,0,0,1,.553-2.769l-.757-3.751a1,1,0,0,1,1.4-.935l2.839,1.194a7.755,7.755,0,0,1,6.74.318l2.24-.943a1,1,0,0,1,1.4.935Z" transform="translate(-1878.443 -1452.971)" fill="#fff"/>
      <path id="Path_1156" data-name="Path 1156" d="M1942.793,1478.751a3.317,3.317,0,0,1-.366,1.525h-5.118a3.317,3.317,0,0,1-.369-1.53,2.934,2.934,0,1,1,5.853,0Z" transform="translate(-1927.401 -1472.743)" fill="#fdd5d6"/>
      <path id="Path_1157" data-name="Path 1157" d="M1884.5,1465.505a2.065,2.065,0,0,0-2.02-1.171" transform="translate(-1879.815 -1462.881)" fill="none" stroke="#56303c" stroke-linecap="round" stroke-miterlimit="10" stroke-width="0.5"/>
      <path id="Path_1158" data-name="Path 1158" d="M1895.13,1473.344a3.1,3.1,0,0,1,1.234-1.324" transform="translate(-1890.869 -1469.616)" fill="none" stroke="#56303c" stroke-linecap="round" stroke-miterlimit="10" stroke-width="0.5"/>
      <path id="Path_1159" data-name="Path 1159" d="M1979.16,1465.505a2.064,2.064,0,0,1,2.02-1.171" transform="translate(-1964.293 -1462.881)" fill="none" stroke="#56303c" stroke-linecap="round" stroke-miterlimit="10" stroke-width="0.5"/>
      <path id="Path_1160" data-name="Path 1160" d="M1973.955,1474.211a3.078,3.078,0,0,0-1.525-1.241" transform="translate(-1958.412 -1470.446)" fill="none" stroke="#56303c" stroke-linecap="round" stroke-miterlimit="10" stroke-width="0.5"/>
      <path id="Path_1161" data-name="Path 1161" d="M1865.827,1498.034c0,1-1,1.619-2.229,1.619s-2.228-.618-2.228-1.619a2.276,2.276,0,0,1,4.457,0Z" transform="translate(-1861.37 -1490.761)" fill="#fff"/>
      <path id="Path_1162" data-name="Path 1162" d="M1888.32,1496.58a1.956,1.956,0,0,1,1.21,1.8" transform="translate(-1884.918 -1491.076)" fill="none" stroke="#56303c" stroke-linecap="round" stroke-miterlimit="10" stroke-width="0.5"/>
      <line id="Line_547" data-name="Line 547" y2="0.972" transform="translate(1.406 7.545)" fill="none" stroke="#56303c" stroke-linecap="round" stroke-miterlimit="10" stroke-width="0.5"/>
      <line id="Line_548" data-name="Line 548" y2="0.972" transform="translate(2.955 7.545)" fill="none" stroke="#56303c" stroke-linecap="round" stroke-miterlimit="10" stroke-width="0.5"/>
      <path id="Path_1163" data-name="Path 1163" d="M2008.5,1498.034c0,1-1,1.619-2.228,1.619s-2.229-.618-2.229-1.619a2.276,2.276,0,0,1,4.457,0Z" transform="translate(-1986.032 -1490.761)" fill="#fff"/>
      <line id="Line_549" data-name="Line 549" y2="0.972" transform="translate(19.414 7.545)" fill="none" stroke="#56303c" stroke-linecap="round" stroke-miterlimit="10" stroke-width="0.5"/>
      <line id="Line_550" data-name="Line 550" y2="0.972" transform="translate(20.964 7.545)" fill="none" stroke="#56303c" stroke-linecap="round" stroke-miterlimit="10" stroke-width="0.5"/>
      <circle id="Ellipse_326" data-name="Ellipse 326" cx="0.512" cy="0.512" r="0.512" transform="translate(6.722 5.815)" fill="#56303c"/>
      <circle id="Ellipse_327" data-name="Ellipse 327" cx="0.512" cy="0.512" r="0.512" transform="translate(11.909 5.815)" fill="#56303c"/>
    </g>
    <g id="GIRL" transform="translate(102.692 58.728)">
      <g id="DRESS" transform="translate(14.84 24.405)">
        <path id="Path_1164" data-name="Path 1164" d="M1533.567,1253.84l6.187,2.6,3.467,30.077H1515.71l8.4-31.546Z" transform="translate(-1515.71 -1253.84)" fill="#606467"/>
        <g id="Group_38" data-name="Group 38" clip-path="url(#clip-path)">
          <line id="Line_551" data-name="Line 551" y1="33.03" transform="translate(17.626 -0.11)" fill="none" stroke="#fff" stroke-miterlimit="10" stroke-width="3.05"/>
          <line id="Line_552" data-name="Line 552" y1="33.03" transform="translate(13.733 -0.11)" fill="none" stroke="#fff" stroke-miterlimit="10" stroke-width="3.05"/>
          <line id="Line_553" data-name="Line 553" y1="33.03" transform="translate(21.64 -0.11)" fill="none" stroke="#fff" stroke-miterlimit="10" stroke-width="3.05"/>
          <line id="Line_554" data-name="Line 554" y1="33.03" transform="translate(25.653 -0.11)" fill="none" stroke="#fff" stroke-miterlimit="10" stroke-width="3.05"/>
          <line id="Line_555" data-name="Line 555" y1="33.03" transform="translate(1.749 -0.11)" fill="none" stroke="#fff" stroke-miterlimit="10" stroke-width="3.05"/>
          <line id="Line_556" data-name="Line 556" y1="33.03" transform="translate(5.762 -0.11)" fill="none" stroke="#fff" stroke-miterlimit="10" stroke-width="3.05"/>
          <line id="Line_557" data-name="Line 557" y1="33.03" transform="translate(9.776 -0.11)" fill="none" stroke="#fff" stroke-miterlimit="10" stroke-width="3.05"/>
          <line id="Line_558" data-name="Line 558" x1="26.824" transform="translate(0.384 29.928)" fill="none" stroke="#fff" stroke-miterlimit="10" stroke-width="3.05"/>
          <line id="Line_559" data-name="Line 559" x1="26.242" transform="translate(0.384 25.915)" fill="none" stroke="#fff" stroke-miterlimit="10" stroke-width="3.05"/>
          <line id="Line_560" data-name="Line 560" x1="26.242" transform="translate(0.384 21.901)" fill="none" stroke="#fff" stroke-miterlimit="10" stroke-width="3.05"/>
          <line id="Line_561" data-name="Line 561" x1="26.242" transform="translate(0.384 17.889)" fill="none" stroke="#fff" stroke-miterlimit="10" stroke-width="3.05"/>
          <line id="Line_562" data-name="Line 562" x1="26.242" transform="translate(0.384 13.876)" fill="none" stroke="#fff" stroke-miterlimit="10" stroke-width="3.05"/>
          <line id="Line_563" data-name="Line 563" x1="26.242" transform="translate(0.384 9.864)" fill="none" stroke="#fff" stroke-miterlimit="10" stroke-width="3.05"/>
          <line id="Line_564" data-name="Line 564" x1="26.015" transform="translate(0.611 5.85)" fill="none" stroke="#fff" stroke-miterlimit="10" stroke-width="3.05"/>
          <line id="Line_565" data-name="Line 565" x1="26.242" transform="translate(0.384 1.838)" fill="none" stroke="#fff" stroke-miterlimit="10" stroke-width="3.05"/>
        </g>
        <path id="Path_1166" data-name="Path 1166" d="M1619.72,1471.349l13.695-5.979.323,2.806Z" transform="translate(-1606.592 -1438.671)" fill="#56303c"/>
      </g>
      <path id="HAND-2" data-name="HAND" d="M1515.048,1262.8l-8.4,31.547-1.117-7.516a17.771,17.771,0,0,1,.884-8.691l4-10.975a6.539,6.539,0,0,1,3.368-3.759Z" transform="translate(-1491.809 -1237.264)" fill="#fdd5d6"/>
      <g id="BEAR" transform="translate(0 37.95)">
        <path id="Path_1167" data-name="Path 1167" d="M1481.587,1531.77h-.005Z" transform="translate(-1470.855 -1510.235)" fill="#ffafb1"/>
        <path id="Path_1168" data-name="Path 1168" d="M1481.587,1531.77h-.005Z" transform="translate(-1470.855 -1510.235)" fill="#ffafb1"/>
        <path id="Path_1169" data-name="Path 1169" d="M1413.57,1378.207l4.933,2.329a1.124,1.124,0,0,1-.572,2.146h-18.562a1.125,1.125,0,0,1-.566-2.146l4.9-2.336-.22-2.3h-3.131a1.007,1.007,0,0,1-.505-1.921l4.418-2.107a5.41,5.41,0,0,1-2.262-4.305,5.055,5.055,0,0,1,.623-2.425,2.04,2.04,0,1,1,2.574-2.471,7.562,7.562,0,0,1,6.668-.1,2.04,2.04,0,1,1,2.738,2.5,5.057,5.057,0,0,1,.664,2.5,5.422,5.422,0,0,1-2.272,4.308l4.454,2.1a1.006,1.006,0,0,1-.505,1.921h-3.155Z" transform="translate(-1398.133 -1361.15)" fill="#ffafb1"/>
        <path id="Path_1170" data-name="Path 1170" d="M1518.38,1373.069a1.491,1.491,0,0,1,1.407-1.029,1.454,1.454,0,0,1,.721.191" transform="translate(-1503.203 -1370.665)" fill="none" stroke="#56303c" stroke-linecap="round" stroke-miterlimit="10" stroke-width="1"/>
        <path id="Path_1171" data-name="Path 1171" d="M1428.265,1373.069a1.483,1.483,0,0,0-1.4-1.029,1.439,1.439,0,0,0-.715.191" transform="translate(-1422.616 -1370.665)" fill="none" stroke="#56303c" stroke-linecap="round" stroke-miterlimit="10" stroke-width="1"/>
        <path id="Path_1172" data-name="Path 1172" d="M1464.917,1417.813a2.793,2.793,0,0,1-5.547,0c0-1.361,1.241-1.833,2.771-1.833S1464.917,1416.453,1464.917,1417.813Z" transform="translate(-1451.641 -1409.06)" fill="#fff"/>
        <circle id="Ellipse_328" data-name="Ellipse 328" cx="0.37" cy="0.37" r="0.37" transform="translate(12.692 6.421)" fill="#56303c"/>
        <circle id="Ellipse_329" data-name="Ellipse 329" cx="0.37" cy="0.37" r="0.37" transform="translate(7.656 6.421)" fill="#56303c"/>
        <path id="Path_1173" data-name="Path 1173" d="M1475.561,1420.9a1,1,0,0,1-.757.769v.424a.222.222,0,0,1-.444,0v-.424a1,1,0,0,1-.75-.769c0-.3.434-.535.972-.535S1475.561,1420.6,1475.561,1420.9Z" transform="translate(-1464.083 -1412.887)" fill="#56303c"/>
      </g>
      <g id="HAND-3" data-name="HAND" transform="translate(17.239 26.718)">
        <path id="Path_1174" data-name="Path 1174" d="M1557.974,1297.27l-12.528,5.258H1535.3a.589.589,0,0,1-.393-1.029l1.262-1.13a3.273,3.273,0,0,1,2.182-.833h2.977c4.379-3.309,10.989-8.184,10.989-8.184v-16.136a3.047,3.047,0,0,1,6.071-.379l2.24,17.828A4.4,4.4,0,0,1,1557.974,1297.27Z" transform="translate(-1534.714 -1272.162)" fill="#fdd5d6"/>
        <line id="Line_566" data-name="Line 566" y1="0.838" x2="1.222" transform="translate(17.608 18.353)" fill="none" stroke="#56303c" stroke-linecap="round" stroke-miterlimit="10" stroke-width="0.5"/>
        <line id="Line_567" data-name="Line 567" x1="1.226" y2="1.213" transform="translate(0.849 28.924)" fill="none" stroke="#56303c" stroke-linecap="round" stroke-miterlimit="10" stroke-width="0.5"/>
        <line id="Line_568" data-name="Line 568" x1="1.226" y2="1.213" transform="translate(2.302 28.924)" fill="none" stroke="#56303c" stroke-linecap="round" stroke-miterlimit="10" stroke-width="0.5"/>
        <line id="Line_569" data-name="Line 569" x1="1.226" y2="1.213" transform="translate(3.753 28.924)" fill="none" stroke="#56303c" stroke-linecap="round" stroke-miterlimit="10" stroke-width="0.5"/>
        <line id="Line_570" data-name="Line 570" x2="1.054" transform="translate(6.709 27.182)" fill="none" stroke="#56303c" stroke-linecap="round" stroke-miterlimit="10" stroke-width="0.5"/>
      </g>
      <g id="HEAD-2" data-name="HEAD" transform="translate(17.083)">
        <g id="NECK" transform="translate(6.156 17.676)">
          <path id="Path_1175" data-name="Path 1175" d="M1591.709,1200.53v7.86c0,.983-2.118,1.781-4.73,1.781s-4.728-.8-4.728-1.781v-7.86Z" transform="translate(-1582.25 -1200.53)" fill="#fdd5d6"/>
          <path id="Path_1176" data-name="Path 1176" d="M1587.573,1233.985l-5.323,3.139v-3.363l5.146-.346a.307.307,0,0,1,.177.569Z" transform="translate(-1582.25 -1229.265)" fill="#56303c"/>
        </g>
        <g id="HEAD-3" data-name="HEAD">
          <path id="HEAD-4" data-name="HEAD" d="M1544.819,1104.782l-1.376,9.282a3.679,3.679,0,0,0,3.7,4.219l4.67-.082a4.513,4.513,0,0,0,3.462-1.718l3.14-3.984a6.488,6.488,0,0,0,1.335-3.155l.1-.745a6.5,6.5,0,0,0-6.6-7.365l-4.56.116A4.018,4.018,0,0,0,1544.819,1104.782Z" transform="translate(-1542.151 -1096.089)" fill="#fdd5d6"/>
          <g id="HAIR">
            <circle id="Ellipse_330" data-name="Ellipse 330" cx="2.801" cy="2.801" r="2.801" transform="translate(0 0.128)" fill="#171717"/>
            <path id="Path_1177" data-name="Path 1177" d="M1571.369,1069.36a6.437,6.437,0,0,1,.56,3.637l-.1.745a6.48,6.48,0,0,1-1.335,3.155l-.839,1.065-1.262-1.371c0-2.675-3.568-3.008-3.568-3.008-3.608-.817-6.428-2.976-7.6-5.5a4.021,4.021,0,0,1,3.545-2.335l4.562-.116a6.45,6.45,0,0,1,1.626.162,4.44,4.44,0,1,1,4.417,3.566Z" transform="translate(-1554.224 -1060.483)" fill="#272727"/>
            <line id="Line_571" data-name="Line 571" x2="1.655" y2="1.876" transform="translate(12.639 5.373)" fill="none" stroke="#ffafb1" stroke-linecap="round" stroke-miterlimit="10" stroke-width="4.33"/>
          </g>
          <g id="MASK" transform="translate(1.25 15.575)">
            <path id="Path_1178" data-name="Path 1178" d="M1553.529,1184.621v5.417a4.517,4.517,0,0,1-1.73.379l-4.67.082h-.066a3.68,3.68,0,0,1-3.639-4.221l.356-2.4Z" transform="translate(-1543.384 -1183.88)" fill="#a0d6ff"/>
            <line id="Line_572" data-name="Line 572" x2="2.946" transform="translate(9.635 0.983)" fill="none" stroke="#fff" stroke-linecap="round" stroke-miterlimit="10" stroke-width="3.79"/>
            <line id="Line_573" data-name="Line 573" y1="2.089" x2="3.347" transform="translate(9.952 3.875)" fill="none" stroke="#fff" stroke-linecap="round" stroke-miterlimit="10" stroke-width="3.79"/>
          </g>
          <g id="EAR" transform="translate(14.029 14.884)">
            <path id="Path_1179" data-name="Path 1179" d="M1646.755,1178.41h.085a2.125,2.125,0,0,1,2.125,2.125v.085a2.126,2.126,0,0,1-2.125,2.125h-2.21v-2.21A2.125,2.125,0,0,1,1646.755,1178.41Z" transform="translate(-1644.63 -1178.41)" fill="#fdd5d6"/>
            <path id="Path_1180" data-name="Path 1180" d="M1654.109,1190.534a1.227,1.227,0,0,1,1.473-1.251" transform="translate(-1652.913 -1187.903)" fill="none" stroke="#171717" stroke-linecap="round" stroke-miterlimit="10" stroke-width="0.5"/>
            <line id="Line_574" data-name="Line 574" x1="0.441" y1="0.762" transform="translate(1.872 1.738)" fill="none" stroke="#171717" stroke-linecap="round" stroke-miterlimit="10" stroke-width="1"/>
          </g>
          <g id="FACE" transform="translate(2.184 11.965)">
            <path id="Path_1181" data-name="Path 1181" d="M1550.78,1155.28h.7a2.323,2.323,0,0,1,2.3,2.615l-.365,2.9" transform="translate(-1550.78 -1155.28)" fill="none" stroke="#1f1f1f" stroke-linecap="round" stroke-miterlimit="10" stroke-width="1"/>
            <ellipse id="Ellipse_331" data-name="Ellipse 331" cx="0.428" cy="0.615" rx="0.428" ry="0.615" transform="translate(0.781 1.64)" fill="#171717"/>
            <ellipse id="Ellipse_332" data-name="Ellipse 332" cx="0.5" cy="0.717" rx="0.5" ry="0.717" transform="translate(5.224 2.038)" fill="#171717"/>
          </g>
        </g>
      </g>
    </g>
    <g id="WOMAN_S_HAND" data-name="WOMAN&apos;S HAND" transform="translate(142.575 57.064)">
      <path id="Path_1182" data-name="Path 1182" d="M1753.737,1047.3v14.389a5.084,5.084,0,0,1-1.758,3.844l-22.571,19.506a2.144,2.144,0,0,1-1.4.519h-4a2.019,2.019,0,0,0-1.54.709l-3.4,3.967a1.653,1.653,0,0,1-2.187.291l-2.766-1.886,1.708-5.284a2.842,2.842,0,0,1,1.934-1.863l7.353-2.076,17.544-18.785.2-13.332Z" transform="translate(-1714.12 -1047.3)" fill="#fdd5d6"/>
      <line id="Line_575" data-name="Line 575" y1="3.981" x2="1.286" transform="translate(1.083 37.936)" fill="none" stroke="#56303c" stroke-linecap="round" stroke-miterlimit="10" stroke-width="0.5"/>
      <line id="Line_576" data-name="Line 576" y1="3.981" x2="1.286" transform="translate(2.439 38.711)" fill="none" stroke="#56303c" stroke-linecap="round" stroke-miterlimit="10" stroke-width="0.5"/>
      <line id="Line_577" data-name="Line 577" y1="3.571" x2="1.154" transform="translate(3.794 39.702)" fill="none" stroke="#56303c" stroke-linecap="round" stroke-miterlimit="10" stroke-width="0.5"/>
      <line id="Line_578" data-name="Line 578" x1="0.785" y2="2.327" transform="translate(0.548 36.09)" fill="none" stroke="#56303c" stroke-linecap="round" stroke-miterlimit="10" stroke-width="0.5"/>
    </g>
    <g id="MAN" transform="translate(0 9.593)">
      <g id="HAND-4" data-name="HAND" transform="translate(57.569 46.836)">
        <path id="Path_1183" data-name="Path 1183" d="M1053.006,1042.27l12.058,15.1,22.483.581v9.971l-26.073.518a7.531,7.531,0,0,1-5.494-2.224l-15.349-15.461Z" transform="translate(-1040.63 -1042.27)" fill="#ffafb1"/>
        <path id="Path_1184" data-name="Path 1184" d="M1053.006,1042.27l-12.376,8.49,1.1,1.108Z" transform="translate(-1040.63 -1042.27)" fill="#56303c"/>
      </g>
      <g id="MEDICINE_BAG" data-name="MEDICINE BAG" transform="translate(64.233 50.347)">
        <rect id="Rectangle_145" data-name="Rectangle 145" width="40.252" height="28.561" rx="14.28" transform="translate(0 4.645)" fill="#dc1736"/>
        <path id="Path_1185" data-name="Path 1185" d="M1220.42,1076.9v-2.617a4.2,4.2,0,0,1,4.2-4.2h0a4.2,4.2,0,0,1,4.2,4.2v2.617" transform="translate(-1204.392 -1070.09)" fill="none" stroke="#036" stroke-miterlimit="10" stroke-width="4.33"/>
        <path id="Path_1186" data-name="Path 1186" d="M1203.1,1157.541v7.856h-4.612v4.611h-7.855V1165.4h-4.612v-7.856h4.612v-4.611h7.855v4.611Z" transform="translate(-1174.333 -1142.474)" fill="#fff"/>
      </g>
      <g id="FINGERS" transform="translate(101.918 60.303)">
        <path id="Path_1187" data-name="Path 1187" d="M1396.381,1149.02l1.68.564a2.64,2.64,0,0,1,1.8,2.5v7.024a2.946,2.946,0,0,1-.716,1.925l-1.868,2.162v-3.741a1.118,1.118,0,0,0-.747-1.053l-.746-.252a1.017,1.017,0,0,1-.683-.96v-7.244a.972.972,0,0,1,1.281-.928Z" transform="translate(-1394.708 -1148.97)" fill="#ffafb1"/>
        <path id="Path_1188" data-name="Path 1188" d="M1392,1166.8a1.108,1.108,0,0,1,1.483-.92l1.944.564a3.009,3.009,0,0,1,1.629,1.118" transform="translate(-1392 -1163.703)" fill="none" stroke="#56303c" stroke-linecap="round" stroke-miterlimit="10" stroke-width="1"/>
        <path id="Path_1189" data-name="Path 1189" d="M1392,1183.679a1.109,1.109,0,0,1,1.483-.922l1.944.564a3,3,0,0,1,1.654,1.154" transform="translate(-1392 -1178.447)" fill="none" stroke="#56303c" stroke-linecap="round" stroke-miterlimit="10" stroke-width="1"/>
        <path id="Path_1190" data-name="Path 1190" d="M1392,1200.554a1.108,1.108,0,0,1,1.483-.92l1.944.564a3.027,3.027,0,0,1,1.588,1.06" transform="translate(-1392 -1193.193)" fill="none" stroke="#56303c" stroke-linecap="round" stroke-miterlimit="10" stroke-width="1"/>
      </g>
      <g id="LEGS" transform="translate(0 82.357)">
        <path id="Path_1191" data-name="Path 1191" d="M630.536,1361.717l-7.8-36.073-26.109-1.814-8.317,11.381a19.679,19.679,0,0,0-3.787,11.738l.091,14.768Z" transform="translate(-584.526 -1323.813)" fill="#036"/>
        <path id="Path_1192" data-name="Path 1192" d="M677.244,1323.7l25.9,1.83,1.414,6.542-28.012-7.686Z" transform="translate(-664.935 -1323.7)" fill="#fff"/>
        <path id="Path_1193" data-name="Path 1193" d="M776.03,1530.458l2.427-12.212,4.716-.857" transform="translate(-751.859 -1492.943)" fill="none" stroke="#fff" stroke-linecap="round" stroke-miterlimit="10" stroke-width="0.5"/>
        <circle id="Ellipse_333" data-name="Ellipse 333" cx="0.599" cy="0.599" r="0.599" transform="translate(29.949 3.508) rotate(-45)" fill="none" stroke="#ec1c24" stroke-miterlimit="10" stroke-width="4.33"/>
        <line id="Line_580" data-name="Line 580" y2="9.538" transform="translate(32.589 5.619)" fill="none" stroke="#fff" stroke-linecap="round" stroke-miterlimit="10" stroke-width="0.5"/>
      </g>
      <g id="T-SHIRT" transform="translate(9.785 25.778)">
        <path id="Path_1194" data-name="Path 1194" d="M680.733,878.13l1.9-2.7,18.009,1.883v2.176h3.832a10.855,10.855,0,0,1,8.835,4.544l8.9,12.452-12.369,8.489-2.72-2.642L694.22,931.8a3.456,3.456,0,0,1-3.408,2.062l-26.238-1.84a2.72,2.72,0,0,1-2.524-2.714V893.915a14.768,14.768,0,0,1,11.993-14.507Z" transform="translate(-662.05 -875.43)" fill="#a0d6ff"/>
        <rect id="Rectangle_146" data-name="Rectangle 146" width="7.495" height="4.714" rx="2.357" transform="translate(36.341 18.953)" fill="#dc1736"/>
        <line id="Line_581" data-name="Line 581" y2="2.305" transform="translate(40.283 17.428)" fill="none" stroke="#036" stroke-miterlimit="10" stroke-width="4.33"/>
        <circle id="Ellipse_334" data-name="Ellipse 334" cx="0.726" cy="0.726" r="0.726" transform="translate(32.356 5.74)" fill="none" stroke="#fff" stroke-linecap="round" stroke-miterlimit="10" stroke-width="3.79"/>
        <circle id="Ellipse_335" data-name="Ellipse 335" cx="0.726" cy="0.726" r="0.726" transform="translate(32.356 11.18)" fill="none" stroke="#fff" stroke-linecap="round" stroke-miterlimit="10" stroke-width="3.79"/>
        <path id="Path_1195" data-name="Path 1195" d="M895,894.393l3.192-3.31a.883.883,0,0,1,1.319.061l2.893,3.616" transform="translate(-865.597 -888.875)" fill="none" stroke="#fff" stroke-linecap="round" stroke-miterlimit="10" stroke-width="1"/>
        <line id="Line_582" data-name="Line 582" y2="1.632" transform="translate(38.842 4.059)" fill="none" stroke="#fff" stroke-linecap="round" stroke-miterlimit="10" stroke-width="1"/>
        <line id="Line_583" data-name="Line 583" x1="9.665" y1="14.627" transform="translate(20.368 13.793)" fill="none" stroke="#fff" stroke-linecap="round" stroke-miterlimit="10" stroke-width="1"/>
        <line id="Line_584" data-name="Line 584" y1="6.346" x2="2.72" transform="translate(45.258 20.753)" fill="none" stroke="#fff" stroke-linecap="round" stroke-miterlimit="10" stroke-width="1"/>
        <line id="Line_585" data-name="Line 585" y1="5.499" x2="16.417" transform="translate(11.679 25.516)" fill="none" stroke="#fff" stroke-linecap="round" stroke-miterlimit="10" stroke-width="1"/>
        <line id="Line_586" data-name="Line 586" y1="6.395" x2="9.321" transform="translate(45.654 20.829)" fill="none" stroke="#fff" stroke-linecap="round" stroke-miterlimit="10" stroke-width="1"/>
      </g>
      <g id="HAND-5" data-name="HAND" transform="translate(23.013 54.391)">
        <path id="Path_1196" data-name="Path 1196" d="M783.268,1102.13,792.7,1114.1l31.105,14.327a2.271,2.271,0,0,1,.769.577l1.989,2.291h5.3l-.757,1.425a2.426,2.426,0,0,1-1.429,1.183l-5.633,1.739a5.971,5.971,0,0,1-3.178.1L788.61,1127.9a11.272,11.272,0,0,1-5.5-3.179L766.85,1107.63Z" transform="translate(-766.85 -1102.13)" fill="#ffafb1"/>
        <line id="Line_587" data-name="Line 587" x1="4.216" transform="translate(55.498 29.161)" fill="none" stroke="#56303c" stroke-linecap="round" stroke-miterlimit="10" stroke-width="1"/>
        <path id="Path_1197" data-name="Path 1197" d="M783.268,1102.13l-16.419,5.5,1.873,1.968Z" transform="translate(-766.85 -1102.13)" fill="#56303c"/>
      </g>
      <g id="HEAD-5" data-name="HEAD" transform="translate(31.347)">
        <path id="HEAD-6" data-name="HEAD" d="M855.979,710.14v14.3a3.611,3.611,0,0,1-3.611,3.612h-2.455v4.833l-1.746-.182-15.288-1.6,4.18-7.674a2.4,2.4,0,0,1-1.5-2.22v-.5a2.389,2.389,0,0,1,2.387-2.379h.5a2.385,2.385,0,0,1,.8.136A6.745,6.745,0,0,0,843.7,711.9a7.591,7.591,0,0,0-.117-1.334,14.712,14.712,0,0,0,5.762,1.121A14.252,14.252,0,0,0,855.979,710.14Z" transform="translate(-832.88 -705.225)" fill="#ffafb1"/>
        <g id="SHADOW" transform="translate(7.064 18.41)">
          <path id="Path_1198" data-name="Path 1198" d="M914.9,847.4v4.833l-1.745-.182-5.9-5.324a4.259,4.259,0,0,0,2.5.673Z" transform="translate(-904.927 -842.985)" fill="#56303c"/>
          <path id="Path_1199" data-name="Path 1199" d="M893.429,821.477a4.11,4.11,0,0,1-3.786-2.524l-.793-1.893" transform="translate(-888.85 -817.06)" fill="none" stroke="#56303c" stroke-linecap="round" stroke-miterlimit="10" stroke-width="1"/>
        </g>
        <path id="MASK-2" data-name="MASK" d="M893.037,772.306v4.5a3.629,3.629,0,0,1-3.629,3.629h-7.863a1.7,1.7,0,0,1-1.7-1.7v-5.987l-4.418-2.2a.239.239,0,1,1,.213-.428l4.385,2.19Z" transform="translate(-869.938 -757.609)" fill="#a0d6ff"/>
        <g id="FACE-2" data-name="FACE" transform="translate(11.507 9.441)">
          <line id="Line_588" data-name="Line 588" y1="6.263" transform="translate(7.564 1.141)" fill="none" stroke="#56303c" stroke-linecap="round" stroke-miterlimit="10" stroke-width="1"/>
          <path id="Path_1200" data-name="Path 1200" d="M928.046,747.6h-4l.307-.837a1.136,1.136,0,0,1,1.067-.745h4.153l-.116.472A1.455,1.455,0,0,1,928.046,747.6Z" transform="translate(-924.05 -746.017)" fill="#56303c"/>
          <path id="Path_1201" data-name="Path 1201" d="M983.293,746h3.063v1.581H982.09V747.2A1.2,1.2,0,0,1,983.293,746Z" transform="translate(-974.764 -746)" fill="#56303c"/>
          <path id="Path_1202" data-name="Path 1202" d="M940,770.529a1.753,1.753,0,0,1,2.431,0" transform="translate(-937.987 -767.005)" fill="none" stroke="#56303c" stroke-linecap="round" stroke-miterlimit="10" stroke-width="1"/>
          <path id="Path_1203" data-name="Path 1203" d="M990.63,770.532a1.316,1.316,0,0,1,2.048,0" transform="translate(-982.226 -767.008)" fill="none" stroke="#56303c" stroke-linecap="round" stroke-miterlimit="10" stroke-width="1"/>
        </g>
        <g id="EAR-2" data-name="EAR" transform="translate(4.732 14.574)">
          <path id="Path_1204" data-name="Path 1204" d="M870.37,786.675s1.484-.213,1.767,1.8" transform="translate(-870.37 -786.668)" fill="none" stroke="#56303c" stroke-linecap="round" stroke-miterlimit="10" stroke-width="1"/>
          <line id="Line_589" data-name="Line 589" y1="0.819" x2="1.258" transform="translate(0 0.528)" fill="none" stroke="#56303c" stroke-linecap="round" stroke-miterlimit="10" stroke-width="1"/>
        </g>
        <g id="HAIR-2" data-name="HAIR" transform="translate(2.981)">
          <path id="Path_1205" data-name="Path 1205" d="M876.616,675.11v5.531a5.831,5.831,0,0,1-.66-2.8,6.559,6.559,0,0,1,.164-1.476,14.487,14.487,0,0,1-6.138,1.291,14.713,14.713,0,0,1-5.762-1.121,7.6,7.6,0,0,1,.117,1.334,6.753,6.753,0,0,1-4.459,6.563,2.387,2.387,0,0,0-.793-.129h-.5a2.391,2.391,0,0,0-.909.179l-.872-3.11a7.965,7.965,0,0,1,1.729-7.485h-1.641a.342.342,0,1,1,0-.683h1.849v-1.616a.342.342,0,1,1,.683,0v1.436c.169-.14.345-.274.525-.4h0a7.924,7.924,0,0,1,4.568-1.425h8.2a3.913,3.913,0,0,1,3.913,3.839h0Z" transform="translate(-856.497 -671.199)" fill="#56303c"/>
          <path id="Path_1206" data-name="Path 1206" d="M909.338,708.266a.235.235,0,0,1-.139-.044L907.482,707a.24.24,0,0,1,.278-.39l1.718,1.226a.239.239,0,0,1-.139.433Z" transform="translate(-900.969 -702.106)" fill="#ffafb1"/>
        </g>
      </g>
    </g>
  </g>
</svg>
