<svg xmlns="http://www.w3.org/2000/svg" width="76" height="59.443" viewBox="0 0 76 59.443">
  <path id="supervisor_account_FILL0_wght400_GRAD0_opsz48" d="M59.87,45.95a8.685,8.685,0,0,1-8.7-8.7A8.7,8.7,0,0,1,66.021,31.1a8.709,8.709,0,0,1,0,12.3A8.38,8.38,0,0,1,59.87,45.95ZM41.74,66.393V61.675a7.913,7.913,0,0,1,1.018-4.116,6.784,6.784,0,0,1,2.868-2.636,30.606,30.606,0,0,1,6.938-2.59A31.6,31.6,0,0,1,59.87,51.5a33.382,33.382,0,0,1,7.308.786,26.928,26.928,0,0,1,6.938,2.636,6.154,6.154,0,0,1,2.868,2.59A8.165,8.165,0,0,1,78,61.675v4.718ZM33.6,36.7A13.307,13.307,0,0,1,19.725,22.825,13.307,13.307,0,0,1,33.6,8.95,13.307,13.307,0,0,1,47.475,22.825,13.307,13.307,0,0,1,33.6,36.7ZM4,66.393V57.7a11.077,11.077,0,0,1,1.573-5.781,9.992,9.992,0,0,1,4.718-4.024A69.527,69.527,0,0,1,22.176,43.73,48.05,48.05,0,0,1,33.6,42.343a44.675,44.675,0,0,1,5.273.278q2.313.277,5,.832L39.15,48.17a21.853,21.853,0,0,0-2.59-.231q-1.387-.046-2.96-.046a49.159,49.159,0,0,0-10.268,1.064A46.982,46.982,0,0,0,12.51,52.888a5.174,5.174,0,0,0-2.128,2.035A5.354,5.354,0,0,0,9.55,57.7v3.145H36.19v5.55Zm32.19-5.55ZM33.6,31.15a8.068,8.068,0,0,0,8.325-8.325A8.068,8.068,0,0,0,33.6,14.5a8.068,8.068,0,0,0-8.325,8.325A8.068,8.068,0,0,0,33.6,31.15Zm0-8.325Z" transform="translate(-3 -7.95)" fill="#ee1c25" stroke="#fff" stroke-width="2"/>
</svg>
