<svg xmlns="http://www.w3.org/2000/svg" width="13.101" height="8.195" viewBox="0 0 13.101 8.195">
  <path id="forward" d="M9.5,5.513a.144.144,0,0,0-.2.134v1a.5.5,0,0,1-.5.5H2.5v2.9H8.8a.5.5,0,0,1,.5.5v1a.144.144,0,0,0,.2.134l3.984-2.933q.02-.015.042-.028a.147.147,0,0,0,0-.252q-.022-.013-.042-.028Zm-1.2.134a1.144,1.144,0,0,1,1.767-.96l3.994,2.94a1.147,1.147,0,0,1,0,1.946l-3.994,2.94a1.144,1.144,0,0,1-1.767-.96v-.5H2a.5.5,0,0,1-.5-.5V6.65a.5.5,0,0,1,.5-.5H8.3v-.5Z" transform="translate(-1.5 -4.502)" fill="#dc1736"/>
</svg>
