<svg xmlns="http://www.w3.org/2000/svg" width="62.414" height="60.62" viewBox="0 0 62.414 60.62">
  <path id="person_FILL0_wght400_GRAD0_opsz48" d="M38.207,37.269A13.58,13.58,0,0,1,24.047,23.109,13.58,13.58,0,0,1,38.207,8.95,13.58,13.58,0,0,1,52.366,23.109,13.58,13.58,0,0,1,38.207,37.269ZM8,67.57V58.7a10.388,10.388,0,0,1,1.794-6.136,11.515,11.515,0,0,1,4.625-3.87,70.954,70.954,0,0,1,12.13-4.248,49.035,49.035,0,0,1,11.658-1.416A46.972,46.972,0,0,1,49.818,44.49a80.413,80.413,0,0,1,12.083,4.2,11.381,11.381,0,0,1,4.72,3.87A10.388,10.388,0,0,1,68.414,58.7V67.57Zm5.664-5.664H62.75V58.7a5.171,5.171,0,0,0-.9-2.879,5.684,5.684,0,0,0-2.218-2.03A50.126,50.126,0,0,0,48.59,49.776a48.838,48.838,0,0,0-10.384-1.086,50.167,50.167,0,0,0-10.478,1.086,47.945,47.945,0,0,0-11.044,4.012A5.68,5.68,0,0,0,13.664,58.7Zm24.543-30.3a8.233,8.233,0,0,0,8.5-8.5,8.233,8.233,0,0,0-8.5-8.5,8.233,8.233,0,0,0-8.5,8.5,8.233,8.233,0,0,0,8.5,8.5Zm0-8.5Zm0,38.8Z" transform="translate(-7 -7.95)" fill="#cfcfcf" stroke="#fff" stroke-width="2"/>
</svg>
